<svg version="1.2" xmlns="http://www.w3.org/2000/svg" viewBox="0 0 550 550" width="550" height="550">
	<style>
		.s0 { opacity: .28;fill: #000000 } 
		.s1 { fill: none;stroke: #ffffff;stroke-linecap: round;stroke-linejoin: round;stroke-width: 12 } 
		.s2 { fill: none;stroke: #ffffff;stroke-linecap: round;stroke-linejoin: round;stroke-width: 27 } 
	</style>
	<g id="GraphicDesigns">
		<path id="Shape 9" fill-rule="evenodd" class="s0" d="m459 78v394h-366v-394z"/>
		<path id="Shape 10" fill-rule="evenodd" class="s1" d="m310.3 388.19c0.69 10.21-3.04 20.22-10.27 27.44-13.81 13.82-36.25 13.82-50.06 0-7.23-7.22-11-17.26-10.3-27.47l8.49-122.81h53.68zm-8.43-137.19h-6.59-47.15l-20.34-32.51c-4.18-6.66-4.37-15.08-0.51-21.93l40.53-72.08v60.45c-1.05 0.61-2.06 1.37-2.98 2.29-5.61 5.6-5.61 14.67 0 20.27 5.61 5.61 14.67 5.61 20.28 0 5.61-5.6 5.61-14.67 0-20.27-0.92-0.92-1.9-1.65-2.98-2.29l0.06-60.45 40.5 72.05c3.86 6.84 3.67 15.27-0.51 21.93 0 0-20.34 32.51-20.31 32.54z"/>
		<path id="Shape 8" fill-rule="evenodd" class="s2" d="m466.07 71v408.61h-382.07v-408.61z"/>
	</g>
</svg>